<svg width="26" height="20" viewBox="0 0 26 20" fill="none" xmlns="http://www.w3.org/2000/svg">
<path id="email" d="M21.6667 0.5H4.33333C1.95 0.5 0 2.4 0 4.72222V15.2778C0 17.6 1.95 19.5 4.33333 19.5H21.6667C24.05 19.5 26 17.6 26 15.2778V4.72222C26 2.4 24.05 0.5 21.6667 0.5ZM23.4 6.62222L14.8417 12.2167C14.3 12.5333 13.65 12.7444 13 12.7444C12.35 12.7444 11.7 12.5333 11.1583 12.2167L2.6 6.62222C2.16667 6.30556 2.05833 5.67222 2.38333 5.14444C2.70833 4.72222 3.35833 4.61667 3.9 4.93333L12.4583 10.5278C12.7833 10.7389 13.325 10.7389 13.65 10.5278L22.2083 4.93333C22.75 4.61667 23.4 4.72222 23.725 5.25C23.9417 5.67222 23.8333 6.30556 23.4 6.62222Z" fill="white"/>
</svg>
