<svg width="42" height="41" viewBox="0 0 42 41" fill="none" xmlns="http://www.w3.org/2000/svg">
<g id="fi_115893">
<g id="Group">
<path id="Vector" d="M21.3095 16.1813C25.7707 16.1813 29.4001 12.5519 29.4001 8.09067C29.4001 3.6294 25.7707 0 21.3095 0C16.8482 0 13.2188 3.6294 13.2188 8.09067C13.2188 12.5519 16.8482 16.1813 21.3095 16.1813Z" fill="#37A2DD"/>
<path id="Vector_2" d="M32.1661 20.1005C32.1626 20.0994 32.156 20.0969 32.1526 20.0961C31.0991 19.8388 27.8732 19.3875 27.8732 19.3875C27.5091 19.2754 27.1199 19.4683 26.9889 19.8276L22.1332 33.1504C21.8531 33.9189 20.7661 33.9189 20.4861 33.1504L15.6304 19.8276C15.5246 19.5374 15.2508 19.3555 14.9573 19.3555C14.8877 19.3555 11.5708 19.8205 10.4666 20.0951C7.44915 20.8454 5.5459 23.8126 5.5459 26.9049V37.9903C5.5459 39.6516 6.89269 40.9984 8.55395 40.9984H34.0626C35.7238 40.9984 37.0706 39.6516 37.0706 37.9903V26.868C37.0705 23.7891 35.0927 21.0568 32.1661 20.1005Z" fill="#37A2DD"/>
<path id="Vector_3" d="M23.1407 19.1338C22.9469 18.9226 22.6636 18.8164 22.377 18.8164H20.2394C19.9528 18.8164 19.6694 18.9227 19.4757 19.1338C19.1757 19.4607 19.1321 19.9329 19.3451 20.3019L20.4878 22.0246L19.9529 26.5374L21.0063 29.3397C21.109 29.6216 21.5076 29.6216 21.6103 29.3397L22.6637 26.5374L22.1288 22.0246L23.2716 20.3019C23.4843 19.9329 23.4407 19.4607 23.1407 19.1338Z" fill="#37A2DD"/>
</g>
</g>
</svg>
