<svg width="553" height="41" viewBox="0 0 553 41" fill="none" xmlns="http://www.w3.org/2000/svg">
<g opacity="0.3">
<path d="M16.3622 40.2765C16.3622 31.3857 9.13286 24.1564 0.242087 24.1564C0.161391 24.1564 0.0854426 24.1659 0 24.1706V13.7181C0.0806957 13.7181 0.161391 13.7134 0.242087 13.7134C14.886 13.7134 26.8052 25.6279 26.8052 40.2765H16.3622Z" fill="white"/>
<path d="M0.00476074 28.4571C0.0854565 28.4571 0.161405 28.4429 0.246848 28.4429C6.76896 28.4429 12.0759 33.7498 12.0759 40.2719H0.00476074V28.4524V28.4571Z" fill="white"/>
<path d="M31.0964 40.2765C31.0964 23.264 17.2547 9.42227 0.242101 9.42227C0.161405 9.42227 0.0854565 9.42702 0.00476074 9.43177V0.616943H0.702542C22.2198 0.616943 39.6596 18.0615 39.6596 39.574V40.2718H31.0964V40.2765Z" fill="white"/>
<path d="M86.3144 0.619507H46.6595V40.2743H86.3144V0.619507Z" fill="white"/>
<path d="M132.969 40.2766V20.4445L113.142 40.2766H132.969Z" fill="white"/>
<path d="M93.3145 0.617188V20.4494L113.142 0.617188H93.3145Z" fill="white"/>
<path d="M93.3145 40.2766H113.142L93.3145 20.4445V40.2766Z" fill="white"/>
<path d="M113.142 0.616943L132.969 20.4491V0.616943H113.142Z" fill="white"/>
<path d="M113.147 12.5526L105.255 20.4437L113.147 28.3349L121.038 20.4437L113.147 12.5526Z" fill="white"/>
<path d="M179.624 0.619507H139.969V40.2743H179.624V0.619507Z" fill="white"/>
<path d="M186.624 12.3586V40.2746H214.54C202.066 34.8443 192.054 24.8333 186.624 12.3586Z" fill="white"/>
<path d="M226.279 40.203V39.5812C226.279 18.0639 208.834 0.619385 187.322 0.619385H186.7C190.616 20.5702 206.328 36.2869 226.279 40.203Z" fill="white"/>
<path d="M272.938 20.4446V0.617188H253.106L272.938 20.4446Z" fill="white"/>
<path d="M272.938 40.2765V20.4443H253.106L272.938 40.2765Z" fill="white"/>
<path d="M253.111 20.4446V0.617188H233.279L253.111 20.4446Z" fill="white"/>
<path d="M253.111 40.2765V20.4443H233.279L253.111 40.2765Z" fill="white"/>
<path d="M296.301 40.2765C296.301 31.3857 289.071 24.1564 280.181 24.1564C280.1 24.1564 280.024 24.1659 279.938 24.1706V13.7181C280.019 13.7181 280.1 13.7134 280.181 13.7134C294.824 13.7134 306.744 25.6279 306.744 40.2765H296.301Z" fill="white"/>
<path d="M279.943 28.4571C280.024 28.4571 280.1 28.4429 280.185 28.4429C286.707 28.4429 292.014 33.7498 292.014 40.2719H279.943V28.4524V28.4571Z" fill="white"/>
<path d="M311.035 40.2765C311.035 23.264 297.193 9.42227 280.181 9.42227C280.1 9.42227 280.024 9.42702 279.943 9.43177V0.616943H280.641C302.158 0.616943 319.598 18.0615 319.598 39.574V40.2718H311.035V40.2765Z" fill="white"/>
<path d="M366.253 0.619507H326.598V40.2743H366.253V0.619507Z" fill="white"/>
<path d="M412.908 40.2766V20.4445L393.08 40.2766H412.908Z" fill="white"/>
<path d="M373.253 0.617188V20.4494L393.08 0.617188H373.253Z" fill="white"/>
<path d="M373.253 40.2766H393.08L373.253 20.4445V40.2766Z" fill="white"/>
<path d="M393.08 0.616943L412.908 20.4491V0.616943H393.08Z" fill="white"/>
<path d="M393.085 12.5526L385.194 20.4437L393.085 28.3349L400.976 20.4437L393.085 12.5526Z" fill="white"/>
<path d="M459.563 0.619507H419.908V40.2743H459.563V0.619507Z" fill="white"/>
<path d="M466.563 12.3586V40.2746H494.479C482.004 34.8443 471.993 24.8333 466.563 12.3586Z" fill="white"/>
<path d="M506.217 40.203V39.5812C506.217 18.0639 488.773 0.619385 467.26 0.619385H466.639C470.555 20.5702 486.267 36.2869 506.217 40.203Z" fill="white"/>
<path d="M552.877 20.4446V0.617188H533.045L552.877 20.4446Z" fill="white"/>
<path d="M552.877 40.2765V20.4443H533.045L552.877 40.2765Z" fill="white"/>
<path d="M533.05 20.4446V0.617188H513.217L533.05 20.4446Z" fill="white"/>
<path d="M533.05 40.2765V20.4443H513.217L533.05 40.2765Z" fill="white"/>
</g>
</svg>
