<svg width="26" height="25" viewBox="0 0 26 25" fill="none" xmlns="http://www.w3.org/2000/svg">
<g id="Group 1083" filter="url(#filter0_b_8270_93435)">
<path id="Vector" d="M17.4217 7.37204C16.5201 3.18445 14.5972 0.535156 12.8187 0.535156C11.0403 0.535156 9.11743 3.18445 8.21581 7.37204H17.4217Z" fill="white"/>
<path id="Vector_2" d="M7.69038 12.5005C7.69017 13.6438 7.7664 14.7858 7.91857 15.9189H17.7175C17.8697 14.7858 17.9459 13.6438 17.9457 12.5005C17.9459 11.3572 17.8697 10.2152 17.7175 9.08203H7.91857C7.7664 10.2152 7.69017 11.3572 7.69038 12.5005Z" fill="white"/>
<path id="Vector_3" d="M8.21581 17.6289C9.11743 21.8165 11.0403 24.4658 12.8187 24.4658C14.5972 24.4658 16.5201 21.8165 17.4217 17.6289H8.21581Z" fill="white"/>
<path id="Vector_4" d="M19.1707 7.37187H24.5547C23.7458 5.53084 22.5166 3.90501 20.9658 2.6248C19.4151 1.34458 17.5858 0.445616 15.6249 0C17.2461 1.42635 18.5178 4.06367 19.1707 7.37187Z" fill="white"/>
<path id="Vector_5" d="M25.1708 9.08203H19.4449C19.5859 10.2161 19.6564 11.3577 19.656 12.5005C19.6561 13.6432 19.5854 14.7849 19.4441 15.9189H25.17C25.7932 13.6826 25.7941 11.3184 25.1708 9.08203Z" fill="white"/>
<path id="Vector_6" d="M15.6249 25.0008C17.5862 24.5554 19.4157 23.6565 20.9668 22.3763C22.5179 21.0961 23.7473 19.4701 24.5564 17.6289H19.1724C18.5178 20.9371 17.2461 23.5744 15.6249 25.0008Z" fill="white"/>
<path id="Vector_7" d="M6.46463 17.6289H1.08058C1.88972 19.4701 3.11915 21.0961 4.67023 22.3763C6.22132 23.6565 8.05087 24.5554 10.0121 25.0008C8.38921 23.5744 7.11755 20.9371 6.46463 17.6289Z" fill="white"/>
<path id="Vector_8" d="M10.0121 0C8.05087 0.445374 6.22132 1.34423 4.67023 2.62446C3.11915 3.90469 1.88972 5.53064 1.08058 7.37187H6.46463C7.11926 4.06367 8.39092 1.42635 10.0121 0Z" fill="white"/>
<path id="Vector_9" d="M5.98138 12.5005C5.98127 11.3577 6.05205 10.216 6.19332 9.08203H0.467431C-0.15581 11.3184 -0.15581 13.6826 0.467431 15.9189H6.19332C6.05205 14.7849 5.98127 13.6432 5.98138 12.5005Z" fill="white"/>
</g>
<defs>
<filter id="filter0_b_8270_93435" x="-4" y="-4" width="33.6378" height="33" filterUnits="userSpaceOnUse" color-interpolation-filters="sRGB">
<feFlood flood-opacity="0" result="BackgroundImageFix"/>
<feGaussianBlur in="BackgroundImageFix" stdDeviation="2"/>
<feComposite in2="SourceAlpha" operator="in" result="effect1_backgroundBlur_8270_93435"/>
<feBlend mode="normal" in="SourceGraphic" in2="effect1_backgroundBlur_8270_93435" result="shape"/>
</filter>
</defs>
</svg>
