<svg width="40" height="41" viewBox="0 0 40 41" fill="none" xmlns="http://www.w3.org/2000/svg">
<g id="Group 202">
<g id="Group">
<path id="Vector" d="M16.3622 40.278C16.3622 31.3872 9.13286 24.1578 0.242087 24.1578C0.161391 24.1578 0.0854426 24.1673 0 24.1721V13.7196C0.0806957 13.7196 0.161391 13.7148 0.242087 13.7148C14.886 13.7148 26.8052 25.6293 26.8052 40.278H16.3622Z" fill="white"/>
<path id="Vector_2" d="M0.00476074 28.4556C0.0854565 28.4556 0.161405 28.4414 0.246848 28.4414C6.76896 28.4414 12.0759 33.7483 12.0759 40.2705H0.00476074V28.4509V28.4556Z" fill="white"/>
<path id="Vector_3" d="M31.0964 40.2768C31.0964 23.2642 17.2547 9.42252 0.242101 9.42252C0.161405 9.42252 0.0854565 9.42726 0.00476074 9.43201V0.617188H0.702542C22.2198 0.617188 39.6596 18.0617 39.6596 39.5742V40.272H31.0964V40.2768Z" fill="white"/>
</g>
</g>
</svg>
