<svg width="41" height="40" viewBox="0 0 41 40" fill="none" xmlns="http://www.w3.org/2000/svg">
<g id="Group">
<path id="Vector" d="M22.6575 9.87004C23.0407 9.87004 23.3513 9.56577 23.3513 9.19042V3.0739C23.3513 1.58281 22.0789 0.355469 20.5762 0.355469C19.0436 0.355469 17.8011 1.57254 17.8011 3.0739V9.19042C17.8011 9.56577 18.1118 9.87004 18.4949 9.87004H22.6575Z" fill="#37A2DD"/>
<path id="Vector_2" d="M9.47589 17.402C8.60012 17.402 7.89013 16.692 7.89013 15.8162C7.89013 14.9405 8.60012 14.2305 9.47589 14.2305H31.6766C32.5523 14.2305 33.2623 14.9405 33.2623 15.8162C33.2623 16.692 32.5523 17.402 31.6766 17.402H9.47589Z" fill="#37A2DD"/>
<path id="Vector_3" d="M24.9371 9.18918C24.9371 10.471 23.8855 11.4546 22.6575 11.4546H18.4949C17.2669 11.4546 16.2154 10.471 16.2154 9.18918V3.07266C16.2154 2.86057 16.2308 2.65243 16.2605 2.44922C12.4983 4.10872 9.87234 7.87141 9.87234 12.2474V12.6439H31.2801V12.2474C31.2801 7.87141 28.6541 4.10872 24.892 2.44922C24.9217 2.65243 24.9371 2.86057 24.9371 3.07266V9.18918Z" fill="#37A2DD"/>
<path id="Vector_4" d="M11.458 20.574V18.9883H29.6942V20.574C29.6942 23.6044 28.2159 26.2895 25.9411 27.9475C24.4357 29.0448 22.5815 29.6922 20.5761 29.6922C18.5707 29.6922 16.7165 29.0447 15.2111 27.9475C12.9363 26.2895 11.458 23.6044 11.458 20.574Z" fill="#37A2DD"/>
<path id="Vector_5" d="M27.3066 28.8984C28.1396 28.224 28.8693 27.4271 29.4683 26.5352C30.226 26.5719 30.9643 26.6821 31.6764 26.8586V40.0004H9.47578V26.8586C10.1879 26.6821 10.9263 26.5719 11.6839 26.5352C12.283 27.4271 13.0127 28.224 13.8456 28.8984C14.8248 31.6708 17.4685 33.6574 20.5761 33.6574C23.6838 33.6574 26.3275 31.6708 27.3066 28.8984Z" fill="#37A2DD"/>
<path id="Vector_6" d="M20.5762 31.2796C19.2501 31.2796 17.9803 31.0385 16.8084 30.5977C17.798 31.5131 19.1218 32.0725 20.5762 32.0725C22.0306 32.0725 23.3544 31.5131 24.344 30.5977C23.172 31.0385 21.9023 31.2796 20.5762 31.2796Z" fill="#37A2DD"/>
<path id="Vector_7" d="M39.7563 39.9981H33.2622V27.375C33.8136 27.6012 34.3435 27.869 34.848 28.1745C38.1749 30.189 40.3981 33.8428 40.3981 38.0159V39.3563C40.3981 39.7039 40.104 39.9981 39.7563 39.9981Z" fill="#37A2DD"/>
<path id="Vector_8" d="M7.89008 39.9981H1.39599C1.04153 39.9981 0.75415 39.7106 0.75415 39.3562V38.0159C0.75415 33.8601 2.95915 30.2193 6.26305 28.1996L6.30432 28.1745C6.80883 27.869 7.33871 27.6012 7.89008 27.375V39.9981Z" fill="#37A2DD"/>
</g>
</svg>
