<svg width="36" height="40" viewBox="0 0 36 40" fill="none" xmlns="http://www.w3.org/2000/svg">
<g id="Icon">
<path id="Vector" d="M18.2812 20.6273C23.7249 20.6273 28.1378 16.2143 28.1378 10.7707C28.1378 5.32701 23.7249 0.914062 18.2812 0.914062C12.8376 0.914062 8.42465 5.32701 8.42465 10.7707C8.42465 16.2143 12.8376 20.6273 18.2812 20.6273Z" fill="#37A2DD"/>
<path id="Vector_2" fill-rule="evenodd" clip-rule="evenodd" d="M19.6252 31.8265V23.7621C19.6252 23.0201 19.0231 22.418 18.2812 22.418C17.5392 22.418 16.9371 23.0201 16.9371 23.7621V31.8265C16.9371 32.5685 17.5392 33.1706 18.2812 33.1706C19.0231 33.1706 19.6252 32.5685 19.6252 31.8265Z" fill="#37A2DD"/>
<path id="Vector_3" fill-rule="evenodd" clip-rule="evenodd" d="M35.7542 32.7248C35.7542 26.4327 31.5697 21.1191 25.8331 19.4112C25.2292 19.232 24.5804 19.4955 24.274 20.0474L18.2812 30.8503L12.2884 20.0474C11.9819 19.4955 11.3332 19.232 10.7292 19.4112C4.99268 21.1191 0.808105 26.4327 0.808105 32.7248V36.309C0.808105 37.1406 1.13785 37.9381 1.72746 38.5259C2.31527 39.1155 3.11276 39.4452 3.9443 39.4452H32.618C33.4496 39.4452 34.2471 39.1155 34.8349 38.5259C35.4245 37.9381 35.7542 37.1406 35.7542 36.309V32.7248ZM25.4496 32.2768H29.0338C29.7757 32.2768 30.3779 31.6746 30.3779 30.9327C30.3779 30.1908 29.7757 29.5886 29.0338 29.5886H25.4496C24.7077 29.5886 24.1055 30.1908 24.1055 30.9327C24.1055 31.6746 24.7077 32.2768 25.4496 32.2768Z" fill="#37A2DD"/>
</g>
</svg>
