<svg width="171" height="90" viewBox="0 0 171 90" fill="none" xmlns="http://www.w3.org/2000/svg">
<g id="Layer_1" clip-path="url(#clip0_8270_93120)">
<g id="Group">
<path id="Vector" d="M6.50694 65.173V71.0945C5.45123 71.6449 4.43054 71.9201 3.44238 71.9201C2.31662 71.9201 1.46104 71.6149 0.875649 71.0045C0.290255 70.3941 -0.00244141 69.5585 -0.00244141 68.4928C-0.00244141 67.8649 0.115138 67.1894 0.350296 66.4664L1.29093 66.3088L1.35597 66.3739C1.19086 67.0018 1.1058 67.5997 1.1058 68.1651C1.1058 68.9656 1.30844 69.571 1.70871 69.9813C2.10898 70.3916 2.77693 70.5967 3.71006 70.5967C4.27043 70.5967 4.8108 70.5192 5.33365 70.3615V65.173H6.49693H6.50694ZM3.01209 65.3432L2.14901 64.325L3.24975 63.4219L4.10032 64.4401L3.01459 65.3432H3.01209Z" fill="white"/>
<path id="Vector_2" d="M14.4147 68.6246V69.6828L14.2846 69.8129H13.9169C13.324 69.8129 12.8086 69.5827 12.3708 69.1199C11.9605 69.3726 11.5403 69.5502 11.1075 69.6553C10.6772 69.7604 10.1468 69.8129 9.51639 69.8129H8.12796L7.81274 68.5971L7.91781 68.4795H9.76406C10.5671 68.4795 11.23 68.3994 11.7554 68.2443L11.5453 67.8766C10.9348 66.7008 10.362 65.51 9.8316 64.3092L10.7472 63.6562H10.8648C11.3551 64.807 11.878 65.9378 12.4359 67.056C12.7511 67.6564 13.0187 68.0442 13.2414 68.2193C13.464 68.3919 13.7718 68.4795 14.1645 68.4795H14.2821L14.4122 68.6221L14.4147 68.6246Z" fill="white"/>
<path id="Vector_3" d="M14.2821 68.4805H16.4035C16.5261 68.4805 16.5862 68.5405 16.5862 68.6631V69.6312C16.5862 69.7538 16.5261 69.8139 16.4035 69.8139H14.2821C14.1595 69.8139 14.0995 69.7538 14.0995 69.6312V68.6631C14.0995 68.5405 14.1595 68.4805 14.2821 68.4805Z" fill="white"/>
<path id="Vector_4" d="M16.4036 68.4805H18.525C18.6476 68.4805 18.7076 68.5405 18.7076 68.6631V69.6312C18.7076 69.7538 18.6476 69.8139 18.525 69.8139H16.4036C16.281 69.8139 16.2209 69.7538 16.2209 69.6312V68.6631C16.2209 68.5405 16.281 68.4805 16.4036 68.4805Z" fill="white"/>
<path id="Vector_5" d="M18.525 68.4805H20.6465C20.769 68.4805 20.8291 68.5405 20.8291 68.6631V69.6312C20.8291 69.7538 20.769 69.8139 20.6465 69.8139H18.525C18.4024 69.8139 18.3424 69.7538 18.3424 69.6312V68.6631C18.3424 68.5405 18.4024 68.4805 18.525 68.4805Z" fill="white"/>
<path id="Vector_6" d="M20.6439 68.4805H22.7654C22.8879 68.4805 22.948 68.5405 22.948 68.6631V69.6312C22.948 69.7538 22.8879 69.8139 22.7654 69.8139H20.6439C20.5213 69.8139 20.4613 69.7538 20.4613 69.6312V68.6631C20.4613 68.5405 20.5213 68.4805 20.6439 68.4805Z" fill="white"/>
<path id="Vector_7" d="M30.5681 68.6248V69.6855L30.4381 69.8156H30.1879C29.6575 69.8156 29.1497 69.5955 28.6694 69.1477L28.6569 69.1752L27.7412 70.0508L24.7542 68.6924C24.4841 69.1002 24.2089 69.3904 23.9287 69.563C23.6485 69.7331 23.2958 69.8156 22.868 69.8156H22.7629L22.6328 69.6205V68.7049L22.7629 68.4822H22.973C23.2858 68.4822 23.5484 68.3672 23.7636 68.137C23.9787 67.9068 24.2464 67.4816 24.5691 66.8636C24.9719 66.0956 25.3822 65.5027 25.7999 65.085C26.2202 64.6672 26.6855 64.457 27.2009 64.457C27.7763 64.457 28.2466 64.7172 28.6068 65.2401C28.9696 65.7629 29.1522 66.4309 29.1522 67.2414C29.1522 67.5641 29.1122 67.8893 29.0346 68.2221C29.3223 68.3972 29.7251 68.4822 30.2404 68.4822H30.4356L30.5656 68.6273L30.5681 68.6248ZM25.3321 67.6842L27.7538 68.7949C27.9464 68.3597 28.0414 67.9144 28.0414 67.4616C28.0414 66.9487 27.9439 66.5409 27.7463 66.2407C27.5511 65.938 27.2909 65.7904 26.9682 65.7904C26.7056 65.7904 26.4629 65.928 26.2352 66.2032C26.0076 66.4759 25.7424 66.9112 25.4347 67.5041L25.3296 67.6867L25.3321 67.6842Z" fill="white"/>
<path id="Vector_8" d="M33.0698 60.0117V69.8158H30.4381L30.293 69.6732V68.6375L30.4381 68.4824H31.8515V60.0117H33.0698Z" fill="white"/>
<path id="Vector_9" d="M36.4846 60.0117H35.3063V69.8158H36.4846V60.0117Z" fill="white"/>
<path id="Vector_10" d="M45.3005 68.4299L45.4431 69.5932C44.7277 69.7408 43.9321 69.8158 43.0615 69.8158H40.9026V68.5875H41.9883C41.6581 68.1422 41.493 67.6819 41.493 67.2041C41.493 66.6637 41.6281 66.1108 41.8983 65.543C42.3786 65.2478 42.9765 65.0977 43.692 65.0977C44.1097 65.0977 44.55 65.1627 45.0154 65.2928L45.0003 66.391L44.9478 66.4436C44.485 66.356 44.0197 66.3135 43.5469 66.3135C43.2141 66.3135 42.9064 66.3535 42.6162 66.4311C42.5637 66.6412 42.5387 66.8588 42.5387 67.084C42.5387 67.6419 42.7213 68.1422 43.0891 68.5875C43.9697 68.5875 44.7076 68.535 45.3005 68.4299Z" fill="white"/>
<path id="Vector_11" d="M49.9737 68.64V69.6707L49.8436 69.8158H47.2769V60.0117H48.4551V68.4824H49.8436L49.9737 68.64Z" fill="white"/>
<path id="Vector_12" d="M49.8435 68.4805H51.9649C52.0875 68.4805 52.1476 68.5405 52.1476 68.6631V69.6312C52.1476 69.7538 52.0875 69.8139 51.9649 69.8139H49.8435C49.7209 69.8139 49.6609 69.7538 49.6609 69.6312V68.6631C49.6609 68.5405 49.7209 68.4805 49.8435 68.4805Z" fill="white"/>
<path id="Vector_13" d="M51.965 68.4805H54.0864C54.209 68.4805 54.269 68.5405 54.269 68.6631V69.6312C54.269 69.7538 54.209 69.8139 54.0864 69.8139H51.965C51.8424 69.8139 51.7823 69.7538 51.7823 69.6312V68.6631C51.7823 68.5405 51.8424 68.4805 51.965 68.4805Z" fill="white"/>
<path id="Vector_14" d="M54.0839 68.4805H56.2053C56.3279 68.4805 56.3879 68.5405 56.3879 68.6631V69.6312C56.3879 69.7538 56.3279 69.8139 56.2053 69.8139H54.0839C53.9613 69.8139 53.9012 69.7538 53.9012 69.6312V68.6631C53.9012 68.5405 53.9613 68.4805 54.0839 68.4805Z" fill="white"/>
<path id="Vector_15" d="M56.2053 68.4805H58.3268C58.4493 68.4805 58.5094 68.5405 58.5094 68.6631V69.6312C58.5094 69.7538 58.4493 69.8139 58.3268 69.8139H56.2053C56.0827 69.8139 56.0227 69.7538 56.0227 69.6312V68.6631C56.0227 68.5405 56.0827 68.4805 56.2053 68.4805Z" fill="white"/>
<path id="Vector_16" d="M66.1296 68.6248V69.6855L65.9995 69.8156H65.7493C65.2189 69.8156 64.7111 69.5955 64.2308 69.1477L64.2183 69.1752L63.3026 70.0508L60.3156 68.6924C60.0455 69.1002 59.7703 69.3904 59.4901 69.563C59.2099 69.7331 58.8572 69.8156 58.4294 69.8156H58.3243L58.1942 69.6205V68.7049L58.3243 68.4822H58.5344C58.8472 68.4822 59.1098 68.3672 59.325 68.137C59.5401 67.9068 59.8078 67.4816 60.1305 66.8636C60.5333 66.0956 60.9436 65.5027 61.3613 65.085C61.7816 64.6672 62.2469 64.457 62.7623 64.457C63.3377 64.457 63.808 64.7172 64.1682 65.2401C64.531 65.7629 64.7136 66.4309 64.7136 67.2414C64.7136 67.5641 64.6736 67.8893 64.596 68.2221C64.8837 68.3972 65.2865 68.4822 65.8018 68.4822H65.997L66.127 68.6273L66.1296 68.6248ZM60.8935 67.6842L63.3152 68.7949C63.5078 68.3597 63.6029 67.9144 63.6029 67.4616C63.6029 66.9487 63.5053 66.5409 63.3077 66.2407C63.1125 65.938 62.8523 65.7904 62.5296 65.7904C62.267 65.7904 62.0243 65.928 61.7966 66.2032C61.569 66.4759 61.3038 66.9112 60.9961 67.5041L60.891 67.6867L60.8935 67.6842Z" fill="white"/>
<path id="Vector_17" d="M68.0933 64.5725H69.2716V69.8135H65.9994L65.8168 69.6309V68.6252L65.9994 68.4826H68.0933V64.575V64.5725ZM68.5111 63.5268L67.648 62.5086L68.7487 61.6055L69.5993 62.6237L68.5136 63.5268H68.5111Z" fill="white"/>
<path id="Vector_18" d="M75.7386 65.5404C76.5666 66.5686 77.197 67.5793 77.6223 68.5725L77.072 69.8133H71.248L70.8027 68.6625L70.8278 68.5199C72.1737 67.7794 73.2819 66.8938 74.1525 65.8657L74.3351 65.643C73.5071 64.7549 72.3888 63.7442 70.9854 62.611V62.5059L71.8234 61.7604C73.1243 62.8336 74.1625 63.7918 74.938 64.6373C75.2607 63.8968 75.4233 62.8937 75.4233 61.6328V60.0117H76.5866V61.4502C76.5866 63.2189 76.3039 64.5823 75.7361 65.5404M73.6672 72.5076L73.7722 73.1756C73.3695 73.2806 72.8916 73.3332 72.3313 73.3332H71.0629V72.6027L71.7159 72.6277C71.5482 72.4101 71.4657 72.1874 71.4657 71.9598C71.4657 71.6395 71.5457 71.3293 71.7033 71.0316C72.0261 70.9191 72.3563 70.8615 72.6965 70.8615C72.9492 70.8615 73.2094 70.8915 73.4695 70.9516L73.4045 71.6045C73.1243 71.5695 72.8541 71.552 72.5914 71.552C72.4614 71.552 72.3163 71.5645 72.1612 71.592C72.1436 71.6445 72.1336 71.7396 72.1336 71.8797C72.1336 72.1849 72.2212 72.4376 72.3963 72.6377C72.8941 72.6377 73.2944 72.5852 73.5996 72.4801L73.6647 72.5076H73.6672ZM75.0556 66.4561L74.938 66.6012C74.3101 67.3316 73.4795 67.9821 72.4513 68.5475H76.4841C76.1363 67.887 75.6585 67.189 75.0581 66.4561" fill="white"/>
<path id="Vector_19" d="M91.1513 68.6255V69.6987L91.0213 69.8163H90.4058C90.0381 69.8163 89.6303 69.7237 89.175 69.5436L89.1225 69.6336C89.6378 70.0439 90.0906 70.4917 90.4834 70.982L90.1307 72.1703C89.5378 72.4505 88.8398 72.6757 88.0367 72.8508C87.2337 73.0259 86.4332 73.1135 85.6401 73.1135C82.8282 73.1135 81.4248 72.0277 81.4248 69.8588C81.4248 69.1433 81.5499 68.4804 81.8051 67.8724L82.7482 67.7148L82.8257 67.7799C82.6331 68.3553 82.538 68.9432 82.538 69.5461C82.538 70.3291 82.8082 70.902 83.3511 71.2572C83.8915 71.615 84.742 71.7926 85.9053 71.7926C87.2662 71.7926 88.422 71.615 89.3752 71.2572C88.5446 70.2816 87.5364 69.501 86.3506 68.9182L86.7559 67.8574L86.8485 67.8199C87.3988 68.0901 87.8766 68.2677 88.2819 68.3553C88.6872 68.4428 89.1525 68.4854 89.6753 68.4854H91.0238L91.1538 68.6305L91.1513 68.6255ZM84.697 73.7489L85.5601 74.7821L84.4744 75.6852L83.6113 74.6545L84.697 73.7514V73.7489ZM86.6483 73.7489L87.5114 74.7821L86.4382 75.6852L85.5601 74.6545L86.6458 73.7514L86.6483 73.7489Z" fill="white"/>
<path id="Vector_20" d="M93.3228 64.5742V69.8152H90.0506L89.868 69.6326V68.6269L90.0506 68.4843H92.1445V64.5767H93.3228V64.5742ZM92.3421 70.8209L93.2177 71.8666L92.132 72.7697L91.2539 71.724L92.3396 70.8209H92.3421Z" fill="white"/>
<path id="Vector_21" d="M99.2418 68.6238V69.6821L99.1117 69.8121H98.9016C98.4913 69.8121 98.046 69.6295 97.5657 69.2618V69.5244C97.5657 71.5983 96.7727 72.634 95.1841 72.634C94.8439 72.634 94.5161 72.5615 94.2034 72.4139L93.9933 71.2756L94.0858 71.1981C94.4261 71.3031 94.8113 71.3557 95.2366 71.3557C95.6294 71.3557 95.9221 71.2306 96.1147 70.9829C96.3073 70.7353 96.4024 70.3225 96.4024 69.7471V65.0039H97.5657V68.1936C97.9059 68.3862 98.3562 68.4812 98.9141 68.4812H99.1092L99.2393 68.6238H99.2418Z" fill="white"/>
<path id="Vector_22" d="M99.1092 68.4805H101.231C101.353 68.4805 101.413 68.5405 101.413 68.6631V69.6312C101.413 69.7538 101.353 69.8139 101.231 69.8139H99.1092C98.9891 69.8139 98.9266 69.7538 98.9266 69.6312V68.6631C98.9266 68.5405 98.9891 68.4805 99.1092 68.4805Z" fill="white"/>
<path id="Vector_23" d="M101.231 68.4805H103.352C103.475 68.4805 103.535 68.5405 103.535 68.6631V69.6312C103.535 69.7538 103.475 69.8139 103.352 69.8139H101.231C101.108 69.8139 101.048 69.7538 101.048 69.6312V68.6631C101.048 68.5405 101.108 68.4805 101.231 68.4805Z" fill="white"/>
<path id="Vector_24" d="M103.352 68.4805H105.473C105.596 68.4805 105.656 68.5405 105.656 68.6631V69.6312C105.656 69.7538 105.596 69.8139 105.473 69.8139H103.352C103.229 69.8139 103.169 69.7538 103.169 69.6312V68.6631C103.169 68.5405 103.229 68.4805 103.352 68.4805Z" fill="white"/>
<path id="Vector_25" d="M114.034 68.6645V69.6326L113.904 69.8152H112.256C111.347 69.8152 110.514 69.6001 109.754 69.1748C108.838 69.6026 107.742 69.8152 106.467 69.8152H105.471L105.341 69.6451V68.6645L105.471 68.4818H106.844C107.545 68.4818 108.155 68.4393 108.678 68.3517C107.998 67.6288 107.495 66.7657 107.175 65.765L106.637 65.9076L106.532 65.8426L106.649 64.6793C107.785 64.3115 108.841 64.1289 109.816 64.1289C110.742 64.1289 111.675 64.2815 112.618 64.5867L112.801 65.9051C112.433 66.8908 111.833 67.7213 110.995 68.4018C111.335 68.4543 111.723 68.4818 112.16 68.4818H113.902L114.032 68.6645H114.034ZM111.718 65.6449C111.212 65.4873 110.539 65.4098 109.701 65.4098C109.203 65.4098 108.723 65.4498 108.26 65.5273C108.513 66.4079 108.976 67.1659 109.649 67.8014C109.726 67.8789 109.814 67.949 109.911 68.009C110.757 67.4336 111.36 66.6456 111.718 65.6424" fill="white"/>
<path id="Vector_26" d="M116.533 60.0117V69.8158H113.902L113.759 69.6732V68.6375L113.902 68.4824H115.318V60.0117H116.533Z" fill="white"/>
<path id="Vector_27" d="M119.951 60.0117H118.772V69.8158H119.951V60.0117Z" fill="white"/>
<path id="Vector_28" d="M130.768 68.6246V69.6828L130.638 69.8129H130.27C129.677 69.8129 129.162 69.5827 128.724 69.1199C128.314 69.3726 127.894 69.5502 127.461 69.6553C127.031 69.7604 126.5 69.8129 125.87 69.8129H124.481L124.166 68.5971L124.271 68.4795H126.117C126.92 68.4795 127.583 68.3994 128.109 68.2443L127.899 67.8766C127.288 66.7008 126.715 65.51 126.185 64.3092L127.101 63.6562H127.218C127.708 64.807 128.231 65.9378 128.789 67.056C129.104 67.6564 129.372 68.0442 129.595 68.2193C129.817 68.3919 130.125 68.4795 130.518 68.4795H130.635L130.766 68.6221L130.768 68.6246Z" fill="white"/>
<path id="Vector_29" d="M130.638 68.4805H132.759C132.882 68.4805 132.942 68.5405 132.942 68.6631V69.6312C132.942 69.7538 132.882 69.8139 132.759 69.8139H130.638C130.515 69.8139 130.455 69.7538 130.455 69.6312V68.6631C130.455 68.5405 130.515 68.4805 130.638 68.4805Z" fill="white"/>
<path id="Vector_30" d="M132.759 68.4805H134.881C135.003 68.4805 135.063 68.5405 135.063 68.6631V69.6312C135.063 69.7538 135.003 69.8139 134.881 69.8139H132.759C132.637 69.8139 132.577 69.7538 132.577 69.6312V68.6631C132.577 68.5405 132.637 68.4805 132.759 68.4805Z" fill="white"/>
<path id="Vector_31" d="M134.878 68.4805H137C137.122 68.4805 137.182 68.5405 137.182 68.6631V69.6312C137.182 69.7538 137.122 69.8139 137 69.8139H134.878C134.756 69.8139 134.696 69.7538 134.696 69.6312V68.6631C134.696 68.5405 134.756 68.4805 134.878 68.4805Z" fill="white"/>
<path id="Vector_32" d="M137 68.4805H139.121C139.244 68.4805 139.304 68.5405 139.304 68.6631V69.6312C139.304 69.7538 139.244 69.8139 139.121 69.8139H137C136.877 69.8139 136.817 69.7538 136.817 69.6312V68.6631C136.817 68.5405 136.877 68.4805 137 68.4805Z" fill="white"/>
<path id="Vector_33" d="M148.98 68.623V69.6837L148.85 69.8138H148.64C148.16 69.8138 147.649 69.5786 147.106 69.1083C146.966 69.4736 146.801 69.8363 146.609 70.1915C145.318 70.0264 144.157 69.7212 143.126 69.2759C142.358 69.6337 141.373 69.8113 140.169 69.8113H139.121L138.991 69.6412V68.6605L139.121 68.4779H141.725C141.122 68.0676 140.607 67.5147 140.179 66.8168C140.387 66.3465 140.65 65.9362 140.965 65.5884L140.114 65.7961L140.022 65.716V64.6178C141.245 64.3301 142.278 64.1875 143.124 64.1875C144.425 64.1875 145.465 64.4802 146.246 65.0631C147.026 65.646 147.417 66.4615 147.417 67.5072C147.417 67.7174 147.397 67.9525 147.352 68.2127C147.699 68.3878 148.132 68.4754 148.648 68.4754H148.845L148.975 68.618L148.98 68.623ZM143.219 68.1652C143.482 67.9726 143.682 67.7424 143.822 67.4722C143.959 67.202 144.029 66.9444 144.029 66.7017C144.029 66.3089 143.904 65.9862 143.657 65.7335C143.406 65.4809 143.096 65.3608 142.719 65.3683C142.143 65.3933 141.678 65.7961 141.318 66.5716C141.718 67.2671 142.351 67.7999 143.214 68.1652M146.303 67.7349C146.303 67.187 146.161 66.7242 145.873 66.349C145.583 65.9737 145.188 65.701 144.68 65.5259C144.97 65.8736 145.113 66.2364 145.113 66.6116C145.113 67.3346 144.815 67.9801 144.222 68.5454C144.842 68.7456 145.448 68.8857 146.043 68.9632C146.218 68.5379 146.306 68.1277 146.306 67.7349" fill="white"/>
<path id="Vector_34" d="M157.411 68.6645V69.6326L157.281 69.8152H155.632C154.724 69.8152 153.891 69.6001 153.131 69.1748C152.215 69.6026 151.119 69.8152 149.843 69.8152H148.848L148.718 69.6451V68.6645L148.848 68.4818H150.221C150.922 68.4818 151.532 68.4393 152.055 68.3517C151.374 67.6288 150.871 66.7657 150.551 65.765L150.013 65.9076L149.908 65.8426L150.026 64.6793C151.162 64.3115 152.217 64.1289 153.193 64.1289C154.119 64.1289 155.052 64.2815 155.995 64.5867L156.178 65.9051C155.81 66.8908 155.209 67.7213 154.371 68.4018C154.712 68.4543 155.099 68.4818 155.537 68.4818H157.278L157.408 68.6645H157.411ZM155.094 65.6449C154.589 65.4873 153.916 65.4098 153.078 65.4098C152.58 65.4098 152.1 65.4498 151.637 65.5273C151.89 66.4079 152.352 67.1659 153.025 67.8014C153.103 67.8789 153.191 67.949 153.288 68.009C154.134 67.4336 154.737 66.6456 155.094 65.6424" fill="white"/>
<path id="Vector_35" d="M165.081 68.6248V69.6855L164.951 69.8156H164.701C164.17 69.8156 163.663 69.5955 163.182 69.1477L163.17 69.1752L162.254 70.0508L159.267 68.6924C158.997 69.1002 158.722 69.3904 158.442 69.563C158.161 69.7331 157.809 69.8156 157.381 69.8156H157.276L157.146 69.6205V68.7049L157.276 68.4822H157.483C157.799 68.4822 158.061 68.3672 158.277 68.137C158.492 67.9068 158.759 67.4816 159.082 66.8636C159.485 66.0956 159.895 65.5027 160.313 65.085C160.733 64.6672 161.198 64.457 161.714 64.457C162.289 64.457 162.76 64.7172 163.12 65.2401C163.483 65.7629 163.665 66.4309 163.665 67.2414C163.665 67.5641 163.625 67.8893 163.548 68.2221C163.835 68.3972 164.238 68.4822 164.753 68.4822H164.948L165.079 68.6273L165.081 68.6248ZM159.845 67.6842L162.267 68.7949C162.459 68.3597 162.554 67.9144 162.554 67.4616C162.554 66.9487 162.457 66.5409 162.259 66.2407C162.064 65.938 161.804 65.7904 161.481 65.7904C161.218 65.7904 160.976 65.928 160.748 66.2032C160.521 66.4759 160.255 66.9112 159.948 67.5041L159.843 67.6867L159.845 67.6842Z" fill="white"/>
<path id="Vector_36" d="M167.583 60.0117V69.8158H164.951L164.806 69.6732V68.6375L164.951 68.4824H166.364V60.0117H167.583Z" fill="white"/>
<path id="Vector_37" d="M170.998 60.0117H169.819V69.8158H170.998V60.0117Z" fill="white"/>
<path id="Vector_38" d="M5.87897 83.86H2.45417L1.53855 86.5393H0.25769L3.43483 77.3906H5.04341L8.19303 86.5393H6.78208L5.87897 83.86ZM5.49871 82.7217L4.17783 78.8266L2.84443 82.7217H5.49871Z" fill="white"/>
<path id="Vector_39" d="M12.8587 79.9009V81.1418C12.0757 81.1418 11.3677 81.3344 10.7423 81.7172V86.5404H9.4364V80.0836H10.5597L10.6772 80.5914C11.4177 80.1311 12.1457 79.8984 12.8587 79.8984" fill="white"/>
<path id="Vector_40" d="M18.7001 82.2656V84.8674C18.7001 85.4253 18.8102 85.9431 19.0278 86.4234L18.9753 86.541H17.7195C17.6594 86.4109 17.6069 86.2658 17.5618 86.1107C16.9865 86.5285 16.341 86.7387 15.628 86.7387C14.9151 86.7387 14.3747 86.571 13.9869 86.2358C13.5992 85.9006 13.4041 85.4278 13.4041 84.8174C13.4041 84.312 13.5316 83.8192 13.7843 83.3389C14.7249 83.0937 15.9458 82.9561 17.4443 82.9211V82.4633C17.4443 81.9679 17.3317 81.6127 17.104 81.3976C16.8789 81.1849 16.5337 81.0773 16.0733 81.0773C15.4629 81.0773 14.7349 81.2049 13.8894 81.4576L13.7993 81.4051V80.2943C14.6874 80.0416 15.5155 79.9141 16.281 79.9141C17.1266 79.9141 17.7395 80.0892 18.1247 80.4444C18.5075 80.7972 18.7001 81.4051 18.7001 82.2681M15.8907 85.733C16.3861 85.733 16.9064 85.5804 17.4468 85.2752V83.7466C16.3585 83.7892 15.4679 83.8717 14.78 83.9943C14.6849 84.2019 14.6374 84.4246 14.6374 84.6623C14.6374 85.3777 15.0552 85.733 15.8932 85.733" fill="white"/>
<path id="Vector_41" d="M23.5759 79.9004C24.4289 79.9004 25.0819 80.1681 25.5372 80.7034C25.99 81.2388 26.2176 82.0268 26.2176 83.0625C26.2176 83.6729 26.1451 84.2633 26.0025 84.8337C25.8599 85.4041 25.6748 85.8694 25.4471 86.2247C24.8192 86.5649 24.1312 86.735 23.3807 86.735C22.7003 86.735 22.1099 86.6199 21.602 86.3948L20.6464 86.5899L20.5038 86.4473V76.7383H21.8097V80.3982C22.35 80.068 22.9379 79.9029 23.5759 79.9029M24.5315 85.3666C24.7842 84.7136 24.9117 83.9907 24.9117 83.1976C24.9117 82.4671 24.7742 81.9243 24.499 81.5765C24.2238 81.2288 23.8035 81.0537 23.2381 81.0537C22.7578 81.0537 22.285 81.2013 21.8122 81.499V85.314C22.275 85.4967 22.7803 85.5892 23.3282 85.5892C23.7635 85.5892 24.1637 85.5142 24.5315 85.3666Z" fill="white"/>
<path id="Vector_42" d="M34.058 86.7369C32.9247 86.7369 32.0591 86.4367 31.4637 85.8338C30.8658 85.2334 30.5681 84.3628 30.5681 83.2195V77.3906H31.9015V83.1145C31.9015 83.8825 32.0866 84.4704 32.4569 84.8782C32.8271 85.2884 33.36 85.4936 34.058 85.4936C34.7559 85.4936 35.2888 85.2884 35.659 84.8782C36.0293 84.4704 36.2144 83.8825 36.2144 83.1145V77.3906H37.5478V83.2195C37.5478 84.3603 37.2451 85.2334 36.6447 85.8338C36.0418 86.4367 35.1812 86.7369 34.0555 86.7369" fill="white"/>
<path id="Vector_43" d="M43.0765 79.9009V81.1418C42.2935 81.1418 41.5855 81.3344 40.9601 81.7172V86.5404H39.6542V80.0836H40.7774L40.895 80.5914C41.6355 80.1311 42.3635 79.8984 43.0765 79.8984" fill="white"/>
<path id="Vector_44" d="M47.1792 79.9004C48.0323 79.9004 48.6853 80.1681 49.1406 80.7034C49.5934 81.2388 49.821 82.0268 49.821 83.0625C49.821 83.6729 49.7485 84.2633 49.6059 84.8337C49.4633 85.4041 49.2782 85.8694 49.0505 86.2247C48.4226 86.5649 47.7346 86.735 46.9841 86.735C46.3037 86.735 45.7133 86.6199 45.2054 86.3948L44.2498 86.5899L44.1072 86.4473V76.7383H45.4131V80.3982C45.9534 80.068 46.5413 79.9029 47.1792 79.9029M48.1349 85.3666C48.3876 84.7136 48.5151 83.9907 48.5151 83.1976C48.5151 82.4671 48.3776 81.9243 48.1024 81.5765C47.8272 81.2288 47.4069 81.0537 46.8415 81.0537C46.3612 81.0537 45.8884 81.2013 45.4156 81.499V85.314C45.8784 85.4967 46.3837 85.5892 46.9316 85.5892C47.3669 85.5892 47.7671 85.5142 48.1349 85.3666Z" fill="white"/>
<path id="Vector_45" d="M56.0402 82.2656V84.8674C56.0402 85.4253 56.1503 85.9431 56.3679 86.4234L56.3154 86.541H55.0595C54.9995 86.4109 54.947 86.2658 54.9019 86.1107C54.3266 86.5285 53.6811 86.7387 52.9681 86.7387C52.2552 86.7387 51.7148 86.571 51.327 86.2358C50.9393 85.9006 50.7441 85.4278 50.7441 84.8174C50.7441 84.312 50.8717 83.8192 51.1244 83.3389C52.065 83.0937 53.2859 82.9561 54.7844 82.9211V82.4633C54.7844 81.9679 54.6718 81.6127 54.4441 81.3976C54.219 81.1849 53.8737 81.0773 53.4109 81.0773C52.8005 81.0773 52.0725 81.2049 51.227 81.4576L51.1369 81.4051V80.2943C52.025 80.0416 52.8531 79.9141 53.6186 79.9141C54.4641 79.9141 55.0771 80.0892 55.4623 80.4444C55.8451 80.7972 56.0377 81.4051 56.0377 82.2681M53.2283 85.733C53.7236 85.733 54.244 85.5804 54.7844 85.2752V83.7466C53.6961 83.7892 52.8055 83.8717 52.1176 83.9943C52.0225 84.2019 51.975 84.4246 51.975 84.6623C51.975 85.3777 52.3928 85.733 53.2308 85.733" fill="white"/>
<path id="Vector_46" d="M61.2963 79.9023C62.7698 79.9023 63.5053 80.5953 63.5053 81.9812V86.5443H62.1994V82.2439C62.1994 81.4859 61.7841 81.1057 60.9586 81.1057C60.3556 81.1057 59.7803 81.3183 59.2324 81.7461V86.5443H57.9265V80.0875H59.0498L59.1673 80.5828C59.8903 80.13 60.6008 79.9023 61.2963 79.9023Z" fill="white"/>
<path id="Vector_47" d="M68.3285 77.3892H71.6482C72.9041 77.3892 73.8372 77.742 74.4476 78.4474C75.0555 79.1529 75.3632 80.2261 75.3632 81.6621C75.3632 82.4902 75.2607 83.2982 75.0605 84.0862C74.8604 84.8768 74.5852 85.5222 74.2375 86.0275C73.3569 86.3678 72.4237 86.5354 71.4406 86.5354H68.3285V77.3867V77.3892ZM73.3619 85.0744C73.7722 84.1588 73.9773 83.058 73.9773 81.7672C73.9773 80.6514 73.7847 79.8409 73.4019 79.338C73.0191 78.8327 72.3987 78.58 71.5457 78.58H69.6644V85.3521H71.5457C72.1811 85.3521 72.7865 85.2595 73.3619 85.0769" fill="white"/>
<path id="Vector_48" d="M81.8701 82.5691C81.8701 82.9169 81.8351 83.2671 81.765 83.6148H77.6222C77.6573 84.2953 77.8174 84.7906 78.1051 85.1058C78.3953 85.4186 78.8506 85.5762 79.4785 85.5762C80.184 85.5762 80.8894 85.4461 81.5949 85.1834L81.6875 85.2359V86.3066C80.972 86.5943 80.194 86.7369 79.3484 86.7369C78.3202 86.7369 77.5647 86.4693 77.0819 85.9339C76.599 85.396 76.3564 84.5855 76.3564 83.4948C76.3564 82.3115 76.6191 81.2783 77.1394 80.3977C77.8624 80.0674 78.5904 79.9023 79.3234 79.9023C81.022 79.9023 81.8726 80.7904 81.8726 82.5691M80.6318 82.7117V82.5541C80.6318 82.0038 80.5242 81.6135 80.304 81.3758C80.0864 81.1407 79.7587 81.0231 79.3234 81.0231C78.828 81.0231 78.3953 81.1031 78.03 81.2583C77.8374 81.686 77.7148 82.1689 77.6623 82.7092H80.6293L80.6318 82.7117Z" fill="white"/>
<path id="Vector_49" d="M88.6797 80.082L86.3531 86.5389H84.652L82.498 80.082H83.8965L85.5551 85.3356L87.3838 80.082H88.6797Z" fill="white"/>
<path id="Vector_50" d="M94.5862 82.5691C94.5862 82.9169 94.5511 83.2671 94.4811 83.6148H90.3383C90.3733 84.2953 90.5334 84.7906 90.8211 85.1058C91.1113 85.4186 91.5666 85.5762 92.1946 85.5762C92.9 85.5762 93.6055 85.4461 94.311 85.1834L94.4035 85.2359V86.3066C93.6881 86.5943 92.91 86.7369 92.0645 86.7369C91.0363 86.7369 90.2808 86.4693 89.7979 85.9339C89.3151 85.396 89.0724 84.5855 89.0724 83.4948C89.0724 82.3115 89.3351 81.2783 89.8555 80.3977C90.5785 80.0674 91.3065 79.9023 92.0394 79.9023C93.7381 79.9023 94.5887 80.7904 94.5887 82.5691M93.3478 82.7117V82.5541C93.3478 82.0038 93.2403 81.6135 93.0201 81.3758C92.8025 81.1407 92.4747 81.0231 92.0394 81.0231C91.5441 81.0231 91.1113 81.1031 90.7461 81.2583C90.5534 81.686 90.4309 82.1689 90.3783 82.7092H93.3453L93.3478 82.7117Z" fill="white"/>
<path id="Vector_51" d="M97.4606 76.7383H96.1547V86.5424H97.4606V76.7383Z" fill="white"/>
<path id="Vector_52" d="M101.829 79.9023C103.745 79.9023 104.705 80.9831 104.705 83.1445C104.705 84.4004 104.443 85.4261 103.92 86.2291C103.214 86.5693 102.491 86.7394 101.751 86.7394C99.8347 86.7394 98.8765 85.6587 98.8765 83.4973C98.8765 82.294 99.1367 81.2633 99.6596 80.4002C100.383 80.07 101.106 79.9048 101.829 79.9048M103.032 85.356C103.274 84.7281 103.4 84.0351 103.4 83.2771C103.4 81.7961 102.877 81.0556 101.831 81.0556C101.378 81.0556 100.95 81.1332 100.55 81.2908C100.307 81.9187 100.185 82.6092 100.185 83.3697C100.185 84.8507 100.708 85.5912 101.753 85.5912C102.206 85.5912 102.634 85.5111 103.034 85.356" fill="white"/>
<path id="Vector_53" d="M109.161 79.9023C110.059 79.9023 110.74 80.17 111.207 80.7054C111.675 81.2407 111.908 82.0288 111.908 83.0645C111.908 83.6749 111.835 84.2653 111.693 84.8357C111.55 85.406 111.365 85.8714 111.137 86.2266C110.509 86.5668 109.821 86.7369 109.071 86.7369C108.471 86.7369 107.948 86.6544 107.502 86.4868V89.8065H106.194V80.0825H107.32L107.397 80.4627C107.928 80.0875 108.516 79.9023 109.163 79.9023M110.222 85.366C110.474 84.7131 110.602 83.9901 110.602 83.1971C110.602 82.4666 110.464 81.9237 110.189 81.576C109.914 81.2282 109.494 81.0531 108.928 81.0531C108.448 81.0531 107.975 81.2007 107.505 81.4984V85.3135C107.965 85.4961 108.473 85.5887 109.021 85.5887C109.456 85.5887 109.856 85.5136 110.224 85.366" fill="white"/>
<path id="Vector_54" d="M120.871 79.9023C122.282 79.9023 122.988 80.6128 122.988 82.0313V86.5418H121.682V82.3465C121.682 81.561 121.294 81.1707 120.519 81.1707C119.933 81.1707 119.373 81.3783 118.832 81.7986L118.845 82.0338V86.5443H117.539V82.349C117.539 81.5635 117.151 81.1732 116.376 81.1732C115.765 81.1732 115.208 81.3783 114.702 81.7861V86.5443H113.396V80.0875H114.52L114.65 80.6503C115.338 80.1525 116.031 79.9048 116.729 79.9048C117.644 79.9048 118.262 80.205 118.585 80.808C119.353 80.205 120.113 79.9048 120.874 79.9048" fill="white"/>
<path id="Vector_55" d="M129.955 82.5691C129.955 82.9169 129.92 83.2671 129.85 83.6148H125.707C125.742 84.2953 125.902 84.7906 126.19 85.1058C126.48 85.4186 126.935 85.5762 127.563 85.5762C128.269 85.5762 128.974 85.4461 129.68 85.1834L129.772 85.2359V86.3066C129.057 86.5943 128.279 86.7369 127.433 86.7369C126.405 86.7369 125.65 86.4693 125.167 85.9339C124.684 85.396 124.441 84.5855 124.441 83.4948C124.441 82.3115 124.704 81.2783 125.224 80.3977C125.947 80.0674 126.675 79.9023 127.408 79.9023C129.107 79.9023 129.957 80.7904 129.957 82.5691M128.717 82.7117V82.5541C128.717 82.0038 128.609 81.6135 128.389 81.3758C128.171 81.1407 127.844 81.0231 127.408 81.0231C126.913 81.0231 126.48 81.1031 126.115 81.2583C125.922 81.686 125.8 82.1689 125.747 82.7092H128.714L128.717 82.7117Z" fill="white"/>
<path id="Vector_56" d="M134.973 79.9023C136.447 79.9023 137.182 80.5953 137.182 81.9812V86.5443H135.876V82.2439C135.876 81.4859 135.461 81.1057 134.636 81.1057C134.035 81.1057 133.46 81.3183 132.909 81.7461V86.5443H131.604V80.0875H132.727L132.844 80.5828C133.567 80.13 134.278 79.9023 134.973 79.9023Z" fill="white"/>
<path id="Vector_57" d="M142.699 85.077L143.051 86.1227C142.486 86.5154 141.87 86.7106 141.208 86.7106C140.022 86.7106 139.429 86.0526 139.429 84.7367V81.2344H138.436V80.0836H139.429V78.4375H140.735V80.0836H142.839V81.2344H140.735V84.5691C140.735 85.177 140.97 85.4822 141.44 85.4822C141.808 85.4822 142.223 85.3471 142.696 85.077" fill="white"/>
<path id="Vector_58" d="M148.385 77.3906H147.051V86.5393H148.385V77.3906Z" fill="white"/>
<path id="Vector_59" d="M153.861 79.9023C155.335 79.9023 156.07 80.5953 156.07 81.9812V86.5443H154.764V82.2439C154.764 81.4859 154.349 81.1057 153.523 81.1057C152.923 81.1057 152.348 81.3183 151.797 81.7461V86.5443H150.491V80.0875H151.615L151.732 80.5828C152.455 80.13 153.166 79.9023 153.861 79.9023Z" fill="white"/>
<path id="Vector_60" d="M160.33 82.7524C161.141 82.945 161.724 83.1977 162.082 83.5104C162.439 83.8231 162.617 84.2259 162.617 84.7137C162.617 85.2265 162.487 85.6969 162.224 86.1246C161.729 86.5349 161.001 86.7401 160.043 86.7401C159.302 86.7401 158.537 86.605 157.741 86.3348L157.754 85.2215L157.846 85.184C158.604 85.4642 159.337 85.6068 160.043 85.6143C160.611 85.6143 161.053 85.5493 161.376 85.4192C161.419 85.2891 161.441 85.1315 161.441 84.9488C161.441 84.6962 161.321 84.4885 161.081 84.3259C160.841 84.1658 160.425 84.0107 159.833 83.8631C159.047 83.663 158.492 83.4153 158.166 83.1251C157.839 82.8324 157.676 82.4347 157.676 81.9293C157.676 81.459 157.811 80.9887 158.081 80.5184C158.317 80.3357 158.634 80.1881 159.034 80.0806C159.435 79.973 159.84 79.918 160.25 79.918C160.931 79.918 161.579 80.0456 162.199 80.2982V81.409L162.107 81.4615C161.444 81.1913 160.821 81.0562 160.238 81.0562C159.742 81.0562 159.302 81.1338 158.919 81.2914C158.877 81.464 158.854 81.6216 158.854 81.7617C158.854 81.9969 158.959 82.187 159.17 82.3321C159.377 82.4747 159.765 82.6173 160.333 82.7574" fill="white"/>
<path id="Vector_61" d="M167.69 85.077L168.043 86.1227C167.478 86.5154 166.862 86.7106 166.199 86.7106C165.014 86.7106 164.421 86.0526 164.421 84.7367V81.2344H163.427V80.0836H164.421V78.4375H165.727V80.0836H167.83V81.2344H165.727V84.5691C165.727 85.177 165.962 85.4822 166.432 85.4822C166.8 85.4822 167.215 85.3471 167.688 85.077" fill="white"/>
<path id="Vector_62" d="M169.767 86.8178L168.761 85.8221L169.767 84.8164L170.762 85.8221L169.767 86.8178Z" fill="white"/>
<path id="Vector_63" d="M0.19519 20.9016H21.0942V0H20.7265C9.38887 0 0.19519 9.19368 0.19519 20.5313V20.8991V20.9016Z" fill="white"/>
<path id="Vector_64" d="M33.6377 20.9018C33.6377 16.2161 29.8276 12.406 25.142 12.406C25.0995 12.406 25.0594 12.411 25.0144 12.4136V6.90485C25.0569 6.90485 25.0995 6.90234 25.142 6.90234C32.8597 6.90234 39.1414 13.1816 39.1414 20.9018H33.6377Z" fill="white"/>
<path id="Vector_65" d="M25.0168 14.6716C25.0594 14.6716 25.0994 14.6641 25.1444 14.6641C28.5817 14.6641 31.3786 17.4609 31.3786 20.8983H25.0168V14.6691V14.6716Z" fill="white"/>
<path id="Vector_66" d="M41.4029 20.9016C41.4029 11.9355 34.108 4.64062 25.1419 4.64062C25.0994 4.64062 25.0594 4.64312 25.0168 4.64562V0H25.3846C36.7247 0 45.9159 9.19368 45.9159 20.5313V20.8991H41.4029V20.9016Z" fill="white"/>
<path id="Vector_67" d="M171 25.0156H150.099V45.9147H171V25.0156Z" fill="white"/>
<path id="Vector_68" d="M170.998 10.4495V0H160.548L170.998 10.4495Z" fill="white"/>
<path id="Vector_69" d="M170.998 20.9012V10.4492H160.548L170.998 20.9012Z" fill="white"/>
<path id="Vector_70" d="M160.548 10.4495V0H150.099L160.548 10.4495Z" fill="white"/>
<path id="Vector_71" d="M160.548 20.9012V10.4492H150.099L160.548 20.9012Z" fill="white"/>
<path id="Vector_72" d="M120.966 0H100.067V20.8991H120.966V0Z" fill="white"/>
<g id="Group 315">
<path id="Vector_73" d="M125.082 6.1875V20.8999H139.794C133.22 18.038 127.944 12.7619 125.082 6.1875Z" fill="white"/>
<path id="Vector_74" d="M145.983 20.8615V20.5338C145.983 9.19368 136.79 0 125.452 0H125.124C127.188 10.5146 135.469 18.7976 145.983 20.8615Z" fill="white"/>
</g>
<path id="Vector_75" d="M125.102 25.0156H146.001V25.3834C146.001 36.7235 136.81 45.9147 125.469 45.9147H125.102V25.0156Z" fill="white"/>
<path id="Vector_76" d="M50.0337 25.0156V25.3834C50.0337 36.721 59.2274 45.9147 70.565 45.9147H70.9327V25.0156H50.0337Z" fill="white"/>
<g id="Clip path group">
<mask id="mask0_8270_93120" style="mask-type:luminance" maskUnits="userSpaceOnUse" x="50" y="25" width="21" height="21">
<g id="clippath">
<path id="Vector_77" d="M50.0312 25.0156V25.3834C50.0312 36.721 59.2249 45.9147 70.5651 45.9147H70.9328V25.0156H50.0338H50.0312Z" fill="white"/>
</g>
</mask>
<g mask="url(#mask0_8270_93120)">
<g id="Group_2">
<path id="Vector_78" d="M49.4534 40.2492V46.4934H56.6382L71.5132 31.6184V24.4336H65.269L49.4534 40.2492Z" fill="white"/>
<path id="Vector_79" d="M71.5057 46.4926L71.5132 46.4851V34.9648L59.9855 46.4926H71.5057Z" fill="white"/>
<path id="Vector_80" d="M49.4534 36.902L61.9218 24.4336H49.4534V36.902Z" fill="white"/>
</g>
</g>
</g>
<path id="Vector_81" d="M75.0505 25.0156H95.9496V25.3834C95.9496 36.7235 86.7584 45.9147 75.4183 45.9147H75.0505V25.0156Z" fill="white"/>
<path id="Vector_82" d="M70.8677 25.0156H49.9686V25.3834C49.9686 36.7235 59.1598 45.9147 70.4999 45.9147H70.8677V25.0156Z" fill="white"/>
<path id="Vector_83" d="M45.9159 25.0156H25.0168V45.9147H45.9159V25.0156Z" fill="white"/>
<path id="Vector_84" d="M21.0742 25.0156H0.175171V45.9147H21.0742V25.0156Z" fill="white"/>
<path id="Vector_85" d="M95.9496 20.9012V10.4492L85.5001 20.9012H95.9496Z" fill="white"/>
<path id="Vector_86" d="M75.0505 0V10.452L85.5001 0H75.0505Z" fill="white"/>
<path id="Vector_87" d="M75.0505 20.9012H85.5001L75.0505 10.4492V20.9012Z" fill="white"/>
<path id="Vector_88" d="M85.5001 0L95.9496 10.452V0H85.5001Z" fill="white"/>
<path id="Vector_89" d="M85.501 6.29041L81.3422 10.4492L85.501 14.608L89.6598 10.4492L85.501 6.29041Z" fill="white"/>
</g>
<path id="Vector_90" d="M70.9327 0H50.0337V20.8991H70.9327V0Z" fill="white"/>
<path id="Vector_91" d="M120.966 25.0156H100.067V45.9147H120.966V25.0156Z" fill="white"/>
</g>
<defs>
<clipPath id="clip0_8270_93120">
<rect width="171" height="89.8079" fill="white"/>
</clipPath>
</defs>
</svg>
