<svg width="38" height="40" viewBox="0 0 38 40" fill="none" xmlns="http://www.w3.org/2000/svg">
<g id="Layer 2">
<path id="Vector" d="M19.002 20.1797C24.3177 20.1797 28.627 15.8704 28.627 10.5547C28.627 5.23895 24.3177 0.929688 19.002 0.929688C13.6862 0.929688 9.37695 5.23895 9.37695 10.5547C9.37695 15.8704 13.6862 20.1797 19.002 20.1797Z" fill="#37A2DD"/>
<path id="Vector_2" d="M16.4912 28.0983L19.002 30.6104L21.5141 28.0983L19.4461 22.9297H18.5578L16.4912 28.0983Z" fill="#37A2DD"/>
<path id="Vector_3" d="M37.9371 34.5817C37.3648 31.45 36.0232 28.5096 34.0327 26.025C32.0423 23.5404 29.4656 21.5895 26.5342 20.3477C25.2539 21.3357 23.7922 22.0631 22.2319 22.4885L24.0675 27.0783C24.2675 27.5779 24.3165 28.1252 24.2085 28.6524C24.1005 29.1796 23.8401 29.6635 23.4597 30.0442L20.9462 32.5563C20.4305 33.0718 19.7312 33.3614 19.002 33.3614C18.2728 33.3614 17.5734 33.0718 17.0577 32.5563L14.5456 30.0442C14.1653 29.6638 13.9048 29.1802 13.7966 28.6532C13.6883 28.1263 13.737 27.5792 13.9365 27.0797L15.7721 22.4885C14.2118 22.0631 12.7501 21.3357 11.4697 20.3477C8.5384 21.5895 5.96166 23.5404 3.97125 26.025C1.98084 28.5096 0.63916 31.45 0.0668722 34.5817C-0.0413545 35.1721 -0.0179859 35.7792 0.135312 36.3596C0.288611 36.94 0.568063 37.4794 0.953747 37.9394C1.34196 38.4065 1.82832 38.7823 2.37824 39.0402C2.92816 39.298 3.52813 39.4316 4.1355 39.4313H33.8685C34.4759 39.4316 35.0758 39.298 35.6258 39.0402C36.1757 38.7823 36.662 38.4065 37.0502 37.9394C37.4359 37.4794 37.7154 36.94 37.8687 36.3596C38.022 35.7792 38.0453 35.1721 37.9371 34.5817Z" fill="#37A2DD"/>
</g>
</svg>
