<svg width="35" height="42" viewBox="0 0 35 42" fill="none" xmlns="http://www.w3.org/2000/svg">
<path id="Vector" fill-rule="evenodd" clip-rule="evenodd" d="M20.9712 29.6237L20.2049 30.3901L22.482 32.6725L20.2049 34.9553L20.9712 35.7213L24.02 32.6725L20.9712 29.6237ZM13.8302 29.6237L10.7814 32.6725L13.8302 35.7213L14.5964 34.9553L12.3194 32.6725L14.5964 30.3901L13.8302 29.6237ZM18.167 29.5314L15.6181 35.6835L16.6235 36.1017L19.1669 29.9499L18.167 29.5314ZM27.7536 24.5695C27.9349 24.5695 28.1144 24.6052 28.2819 24.6746C28.4494 24.744 28.6015 24.8457 28.7297 24.9739C28.8579 25.1021 28.9596 25.2543 29.0289 25.4218C29.0983 25.5893 29.134 25.7688 29.1339 25.9501V39.493H33.2751V40.1833C33.2737 40.549 33.1278 40.8992 32.8692 41.1577C32.6106 41.4163 32.2603 41.5621 31.8947 41.5635H2.92846C2.5628 41.5622 2.21252 41.4163 1.95394 41.1578C1.69537 40.8992 1.54947 40.549 1.54805 40.1833V39.493H5.70549V25.9501C5.70549 25.7688 5.74119 25.5893 5.81056 25.4218C5.87993 25.2544 5.98162 25.1022 6.1098 24.974C6.23799 24.8459 6.39016 24.7442 6.55764 24.6749C6.72512 24.6055 6.90462 24.5698 7.08589 24.5699H27.7373C27.7427 24.5695 27.7481 24.5695 27.7536 24.5695ZM11.9117 17.3959C13.5621 18.4535 15.4812 19.0157 17.4414 19.0157C19.4016 19.0157 21.3207 18.4535 22.9711 17.3959C23.2972 17.4557 23.6232 17.5155 23.933 17.5863C26.6749 18.2193 29.274 19.3603 31.5958 20.9503C32.4623 21.6938 33.0236 22.7312 33.1717 23.8633L34.8021 33.5422C34.826 33.8164 34.7761 34.0921 34.6576 34.3405C34.5391 34.589 34.3563 34.8012 34.1282 34.9553L30.2045 37.4171V25.9501C30.2045 25.2957 29.9445 24.6682 29.4818 24.2055C29.0191 23.7428 28.3915 23.4829 27.7372 23.4829H7.08579C7.0804 23.4826 7.07491 23.4826 7.06948 23.4826C6.41512 23.4827 5.7876 23.7427 5.32492 24.2054C4.86225 24.6682 4.6023 25.2957 4.60225 25.9501V37.7158L0.879562 35.2596C0.570128 35.0215 0.328165 34.7067 0.177572 34.3464C0.0269784 33.9862 -0.0270376 33.5929 0.0208587 33.2054L1.65123 23.8633C1.85782 22.7219 2.2599 21.5699 3.2273 20.9504C5.58181 19.3887 8.1891 18.2468 10.9335 17.5753L11.9117 17.3959ZM17.4116 0C19.1313 0 20.8125 0.509971 22.2424 1.46542C23.6724 2.42088 24.7869 3.7789 25.445 5.36776C26.1031 6.95662 26.2753 8.70496 25.9398 10.3917C25.6043 12.0784 24.7762 13.6278 23.5601 14.8438C22.344 16.0599 20.7947 16.888 19.1079 17.2235C17.4212 17.5591 15.6729 17.3869 14.084 16.7287C12.4952 16.0706 11.1371 14.9561 10.1817 13.5262C9.22624 12.0962 8.71626 10.4151 8.71626 8.69531C8.71626 6.38917 9.63238 4.17748 11.2631 2.5468C12.8938 0.91611 15.1054 0 17.4116 0Z" fill="#37A2DD"/>
</svg>
