<svg width="26" height="26" viewBox="0 0 26 26" fill="none" xmlns="http://www.w3.org/2000/svg">
<path id="Vector" d="M24.7372 17.4592L18.631 14.8552C18.3159 14.714 17.9701 14.6555 17.6261 14.6851C17.2821 14.7147 16.9513 14.8315 16.6651 15.0245L13.3971 17.1988C11.4055 16.2314 9.79291 14.628 8.81425 12.6419L10.9755 9.33494C11.1672 9.04835 11.2843 8.71842 11.3161 8.3751C11.3479 8.03177 11.2935 7.68594 11.1578 7.36899L8.54084 1.26281C8.35823 0.850496 8.04903 0.50707 7.65808 0.282333C7.26714 0.0575969 6.81476 -0.0367664 6.36657 0.0129281C4.6084 0.24325 2.99368 1.10419 1.82264 2.43569C0.651596 3.76718 0.00390894 5.47862 0 7.25181C0 17.5894 8.41064 26 18.7482 26C20.5214 25.9961 22.2328 25.3484 23.5643 24.1774C24.8958 23.0063 25.7567 21.3916 25.9871 19.6334C26.0368 19.1852 25.9424 18.7329 25.7177 18.3419C25.4929 17.951 25.1495 17.6418 24.7372 17.4592Z" fill="white"/>
</svg>
